<svg width="22" height="22" viewBox="0 0 22 22" fill="none" xmlns="http://www.w3.org/2000/svg">
<path fill-rule="evenodd" clip-rule="evenodd" d="M21.479 18.9636L17.2303 14.7149C18.5461 12.7733 19.0907 10.4109 18.758 8.08916C18.4252 5.76744 17.2388 3.65316 15.4306 2.15932C13.6224 0.665472 11.3223 -0.100642 8.97949 0.0106206C6.63668 0.121883 4.4195 1.10253 2.76101 2.76101C1.10253 4.4195 0.121883 6.63668 0.0106206 8.97949C-0.100642 11.3223 0.665472 13.6224 2.15932 15.4306C3.65316 17.2388 5.76744 18.4252 8.08916 18.758C10.4109 19.0907 12.7733 18.5461 14.7149 17.2303L18.9636 21.479C19.2972 21.8126 19.7496 22 20.2213 22C20.6931 22 21.1455 21.8126 21.479 21.479C21.8126 21.1455 22 20.6931 22 20.2213C22 19.7496 21.8126 19.2972 21.479 18.9636ZM9.42419 15.7152C8.17926 15.7157 6.96215 15.3469 5.92683 14.6556C4.8915 13.9642 4.08448 12.9813 3.60784 11.8313C3.1312 10.6812 3.00636 9.41559 3.24912 8.19456C3.49187 6.97352 4.09131 5.85191 4.97161 4.97161C5.85191 4.09131 6.97352 3.49187 8.19456 3.24912C9.41559 3.00636 10.6812 3.1312 11.8313 3.60784C12.9813 4.08448 13.9642 4.8915 14.6556 5.92683C15.3469 6.96215 15.7157 8.17926 15.7152 9.42419C15.7152 11.0927 15.0524 12.6928 13.8726 13.8726C12.6928 15.0524 11.0927 15.7152 9.42419 15.7152Z" fill="#0860C7"/>
</svg>
